<svg xmlns="http://www.w3.org/2000/svg" xmlns:xlink="http://www.w3.org/1999/xlink" viewBox="0 0 1061.83 192.01"><defs><style>.cls-1{fill:url(#linear-gradient);}.cls-2{fill:url(#linear-gradient-2);}.cls-3{fill:url(#linear-gradient-3);}.cls-4{fill:url(#linear-gradient-4);}.cls-5{fill:url(#linear-gradient-5);}.cls-6{fill:url(#linear-gradient-6);}.cls-7{fill:#e0e3f9;}</style><linearGradient id="linear-gradient" x1="50.02" y1="88.93" x2="48.02" y2="138.38" gradientUnits="userSpaceOnUse"><stop offset="0" stop-color="#636bf6"/><stop offset="1" stop-color="#301a76"/></linearGradient><linearGradient id="linear-gradient-2" x1="111.16" y1="29.24" x2="55.7" y2="88.71" xlink:href="#linear-gradient"/><linearGradient id="linear-gradient-3" x1="163.17" y1="77.97" x2="113.72" y2="54.59" xlink:href="#linear-gradient"/><linearGradient id="linear-gradient-4" x1="21.29" y1="164.28" x2="102.13" y2="168.29" xlink:href="#linear-gradient"/><linearGradient id="linear-gradient-5" x1="120.1" y1="179.74" x2="157.52" y2="153.69" xlink:href="#linear-gradient"/><linearGradient id="linear-gradient-6" x1="191.67" y1="167.89" x2="154.25" y2="99.73" xlink:href="#linear-gradient"/></defs><g id="Layer_2" data-name="Layer 2"><g id="Layer_3" data-name="Layer 3"><path class="cls-1" d="M76.67,116.84,48,66.69,4.53,142H91.21Z"/><path class="cls-2" d="M134.68,16.77,91.21,91.67,76.67,116.84,48,66.69l28.88-50c12.82-22.22,44.9-22.23,57.73,0Z"/><polygon class="cls-3" points="177.91 91.67 91.21 91.67 134.68 16.77 177.91 91.67"/><path class="cls-4" d="M120.29,142l-29,50H33.38C7.73,192-8.31,164.24,4.51,142H120.29Z"/><polygon class="cls-5" points="178.08 192.01 91.28 192.01 120.29 142.02 134.83 116.84 178.08 192.01"/><path class="cls-6" d="M178.12,192h0l-43.25-75.17L120.29,91.67h57.62L207,142C219.81,164.23,203.78,192,178.12,192Z"/><path class="cls-7" d="M254.73,140.62q0-15.1,10.62-24.2t28.41-9.08A49.28,49.28,0,0,1,313.08,111v-3.63a9.52,9.52,0,0,0-3.92-7.84q-3.93-3.06-11.39-3.07-12.24,0-25.25,6.32L260.66,81.32A72.59,72.59,0,0,1,301.6,68.88q24.3,0,33.86,10.81T345,109.63v62.18H316.52l-1.72-5.55q-8,8-22.77,8-15.67,0-26.49-9T254.73,140.62Zm35.78-8.89a9.33,9.33,0,0,0-3.83,7.75,8.83,8.83,0,0,0,3.83,7.56,18.65,18.65,0,0,0,19.41.09,8.83,8.83,0,0,0,3.73-7.65,9.29,9.29,0,0,0-3.82-7.85,15.87,15.87,0,0,0-9.76-2.87A15.11,15.11,0,0,0,290.51,131.73Z"/><path class="cls-7" d="M393.43,71.37v59.88q0,6.88,3.63,10.62a12.74,12.74,0,0,0,9.57,3.73q6.5,0,10.14-4a14.82,14.82,0,0,0,3.63-10.33V71.37h32V171.81H421.17V161.48a27.61,27.61,0,0,1-9.95,9,30.28,30.28,0,0,1-15.3,3.83,36.79,36.79,0,0,1-15.6-3.07,27,27,0,0,1-10.14-7.55,33.36,33.36,0,0,1-5.54-11.29A69.45,69.45,0,0,1,362.05,140q-.57-5.66-.57-12.92V71.37Z"/><path class="cls-7" d="M504.57,50.14V71.37h17V97.2h-17v36.92Q504.57,145,517,145c2.17,0,4-.07,5.36-.2v27.36a49.76,49.76,0,0,1-12.25,1.15q-18.56,0-28-9.57t-9.47-31.18V97.2h-9.76V71.37h9.76V50.14Z"/><path class="cls-7" d="M547.43,159.47q-15.31-14.83-15.31-37.59T547.71,84q15.59-15.12,38.93-15.12,24.11,0,39.6,14.83t15.5,37.78q0,22.77-15.69,37.79t-39.41,15Q562.73,174.3,547.43,159.47Zm16.64-37.59q0,10.91,6.41,17.6a21.43,21.43,0,0,0,16.16,6.69,21.81,21.81,0,0,0,16.55-7q6.6-7,6.6-17.7,0-10.89-6.6-17.69A22.12,22.12,0,0,0,586.64,97a21.06,21.06,0,0,0-16.26,6.88Q564.06,110.79,564.07,121.88Z"/><path class="cls-7" d="M692.05,69.27v2.1h15.69V97.2H692.05v74.61H660.1V97.2H649.58V71.37H660.1V68.5q0-18.54,11.1-27t28.69-8.42q2.49,0,9.76.39V60.28a31,31,0,0,0-5.17-.39Q692,59.89,692.05,69.27Z"/><path class="cls-7" d="M728.59,159.47q-15.32-14.83-15.31-37.59T728.87,84q15.6-15.12,38.94-15.12,24.09,0,39.6,14.83t15.49,37.78q0,22.77-15.69,37.79t-39.4,15Q743.89,174.3,728.59,159.47Zm16.64-37.59q0,10.91,6.41,17.6a21.44,21.44,0,0,0,16.17,6.69,21.82,21.82,0,0,0,16.55-7q6.58-7,6.6-17.7,0-10.89-6.6-17.69A22.13,22.13,0,0,0,767.81,97a21.07,21.07,0,0,0-16.27,6.88Q745.24,110.79,745.23,121.88Z"/><path class="cls-7" d="M887.56,146.17a29.14,29.14,0,0,0,18.94-7.08l8.42,26.22a51.22,51.22,0,0,1-29.47,9q-23.91,0-39.21-14.74t-15.31-37.87q0-23,15.5-37.88t38.84-14.93a50.51,50.51,0,0,1,29.84,9.19l-8.61,27a30.7,30.7,0,0,0-20.09-7.46q-10.9,0-17.22,6.79t-6.31,17.12q0,11.1,6.79,17.89T887.56,146.17Z"/><path class="cls-7" d="M922.37,140.62q0-15.1,10.62-24.2t28.41-9.08A49.28,49.28,0,0,1,980.72,111v-3.63a9.52,9.52,0,0,0-3.92-7.84q-3.93-3.06-11.38-3.07-12.25,0-25.26,6.32L928.3,81.32a72.59,72.59,0,0,1,40.94-12.44q24.3,0,33.86,10.81t9.57,29.94v62.18H984.16l-1.72-5.55q-8,8-22.76,8-15.69,0-26.5-9T922.37,140.62Zm35.78-8.89a9.36,9.36,0,0,0-3.83,7.75,8.85,8.85,0,0,0,3.83,7.56,18.65,18.65,0,0,0,19.41.09,8.84,8.84,0,0,0,3.74-7.65,9.3,9.3,0,0,0-3.83-7.85,15.87,15.87,0,0,0-9.76-2.87A15.13,15.13,0,0,0,958.15,131.73Z"/><path class="cls-7" d="M1029.89,171.81V33.5h31.94V171.81Z"/></g></g></svg>