<svg xmlns="http://www.w3.org/2000/svg" xmlns:xlink="http://www.w3.org/1999/xlink" viewBox="0 0 1080 212.72"><defs><style>.cls-1{fill:url(#linear-gradient);}.cls-2{fill:url(#linear-gradient-2);}.cls-3{fill:url(#linear-gradient-3);}.cls-4{fill:url(#linear-gradient-4);}.cls-5{fill:url(#linear-gradient-5);}.cls-6{fill:url(#linear-gradient-6);}.cls-7{fill:#0a0f33;}</style><linearGradient id="linear-gradient" x1="59.1" y1="99.29" x2="57.1" y2="148.73" gradientUnits="userSpaceOnUse"><stop offset="0" stop-color="#636bf6"/><stop offset="1" stop-color="#301a76"/></linearGradient><linearGradient id="linear-gradient-2" x1="120.25" y1="39.59" x2="64.79" y2="99.06" xlink:href="#linear-gradient"/><linearGradient id="linear-gradient-3" x1="172.25" y1="88.33" x2="122.81" y2="64.94" xlink:href="#linear-gradient"/><linearGradient id="linear-gradient-4" x1="30.37" y1="174.64" x2="111.22" y2="178.65" xlink:href="#linear-gradient"/><linearGradient id="linear-gradient-5" x1="129.18" y1="190.1" x2="166.6" y2="164.04" xlink:href="#linear-gradient"/><linearGradient id="linear-gradient-6" x1="200.75" y1="178.24" x2="163.33" y2="110.09" xlink:href="#linear-gradient"/></defs><title>logo</title><g id="Layer_3" data-name="Layer 3"><path class="cls-1" d="M85.75,127.2,57.1,77,13.61,152.38h86.68Z"/><path class="cls-2" d="M143.76,27.13,100.29,102,85.75,127.2,57.1,77,86,27C98.8,4.8,130.87,4.8,143.7,27Z"/><polygon class="cls-3" points="186.99 102.02 100.29 102.02 143.76 27.13 186.99 102.02"/><path class="cls-4" d="M129.37,152.38l-29,50H42.46c-25.65,0-41.69-27.76-28.87-50H129.37Z"/><polygon class="cls-5" points="187.16 202.37 100.36 202.37 129.37 152.38 143.91 127.2 187.16 202.37"/><path class="cls-6" d="M187.2,202.36h0L143.91,127.2,129.37,102H187l29.07,50.35C228.89,174.59,212.86,202.36,187.2,202.36Z"/><path class="cls-7" d="M263.82,151q0-15.1,10.61-24.2t28.41-9.09a49.25,49.25,0,0,1,19.32,3.64v-3.64a9.54,9.54,0,0,0-3.92-7.84q-3.92-3.06-11.38-3.06-12.24,0-25.25,6.31L269.75,91.68a72.55,72.55,0,0,1,40.94-12.44q24.29,0,33.86,10.81T354.11,120v62.17h-28.5l-1.72-5.54q-8,8-22.77,8-15.69,0-26.49-9T263.82,151Zm35.77-8.9a9.36,9.36,0,0,0-3.83,7.75,8.85,8.85,0,0,0,3.83,7.56,18.66,18.66,0,0,0,19.42.09,8.85,8.85,0,0,0,3.73-7.65,9.28,9.28,0,0,0-3.83-7.84,15.77,15.77,0,0,0-9.76-2.87A15.18,15.18,0,0,0,299.59,142.08Z"/><path class="cls-7" d="M402.51,81.73v59.88q0,6.88,3.64,10.61a12.73,12.73,0,0,0,9.56,3.73c4.33,0,7.72-1.33,10.14-4a14.84,14.84,0,0,0,3.64-10.33V81.73h31.94V182.16H430.25V171.83a27.44,27.44,0,0,1-9.95,9,30.28,30.28,0,0,1-15.3,3.83,36.75,36.75,0,0,1-15.59-3.06A27.08,27.08,0,0,1,379.27,174a33.19,33.19,0,0,1-5.55-11.29,68.33,68.33,0,0,1-2.58-12.43,126.77,126.77,0,0,1-.57-12.91V81.73Z"/><path class="cls-7" d="M513.66,60.49V81.73h17v25.82h-17v36.93q0,10.89,12.43,10.9c2.17,0,3.95-.06,5.36-.19v27.35a49.24,49.24,0,0,1-12.24,1.15q-18.57,0-28-9.56T481.71,143v-35.4H472V81.73h9.76V60.49Z"/><path class="cls-7" d="M556.51,169.83Q541.19,155,541.2,132.23t15.59-37.88q15.6-15.1,38.94-15.11,24.09,0,39.6,14.83t15.49,37.78q0,22.77-15.69,37.78t-39.4,15Q571.8,184.65,556.51,169.83Zm16.64-37.6q0,10.91,6.41,17.6a21.41,21.41,0,0,0,16.17,6.7,21.86,21.86,0,0,0,16.55-7q6.59-7,6.6-17.7,0-10.9-6.6-17.7a22.17,22.17,0,0,0-16.55-6.79,21.08,21.08,0,0,0-16.27,6.89Q573.16,121.14,573.15,132.23Z"/><path class="cls-7" d="M701.13,79.62v2.11h15.69v25.82H701.13v74.61h-32V107.55H658.66V81.73h10.52V78.86q0-18.56,11.1-27T709,43.47c1.65,0,4.9.12,9.75.38V70.63a32.15,32.15,0,0,0-5.16-.38Q701.12,70.25,701.13,79.62Z"/><path class="cls-7" d="M737.67,169.83q-15.3-14.84-15.3-37.6T738,94.35q15.59-15.1,38.93-15.11,24.11,0,39.6,14.83T832,131.85q0,22.77-15.68,37.78t-39.41,15Q753,184.65,737.67,169.83Zm16.64-37.6q0,10.91,6.42,17.6a21.39,21.39,0,0,0,16.16,6.7,21.84,21.84,0,0,0,16.55-7q6.6-7,6.6-17.7,0-10.9-6.6-17.7a22.15,22.15,0,0,0-16.55-6.79,21.07,21.07,0,0,0-16.26,6.89Q754.32,121.14,754.31,132.23Z"/><path class="cls-7" d="M896.65,156.53a29.14,29.14,0,0,0,18.93-7.08L924,175.66a51.19,51.19,0,0,1-29.46,9q-23.92,0-39.22-14.73T840,132q0-22.95,15.49-37.88t38.84-14.92a50.46,50.46,0,0,1,29.84,9.18l-8.61,27a30.63,30.63,0,0,0-20.08-7.46q-10.9,0-17.22,6.79T872,131.85q0,11.1,6.8,17.89T896.65,156.53Z"/><path class="cls-7" d="M931.46,151q0-15.1,10.61-24.2t28.41-9.09a49.22,49.22,0,0,1,19.32,3.64v-3.64a9.51,9.51,0,0,0-3.92-7.84q-3.92-3.06-11.38-3.06-12.24,0-25.25,6.31L937.39,91.68a72.55,72.55,0,0,1,40.94-12.44q24.28,0,33.86,10.81t9.56,29.94v62.17h-28.5l-1.72-5.54q-8,8-22.77,8-15.69,0-26.49-9T931.46,151Zm35.77-8.9a9.35,9.35,0,0,0-3.82,7.75,8.84,8.84,0,0,0,3.82,7.56,18.66,18.66,0,0,0,19.42.09,8.83,8.83,0,0,0,3.73-7.65,9.28,9.28,0,0,0-3.83-7.84,15.76,15.76,0,0,0-9.75-2.87A15.19,15.19,0,0,0,967.23,142.08Z"/><path class="cls-7" d="M1039,182.16V43.85h32V182.16Z"/></g></svg>