<?xml version="1.0" standalone="no"?><svg xmlns="http://www.w3.org/2000/svg" viewBox="0 0 1440 320"><path fill="#636BF6 " fill-opacity="1" d="M0,96L6.2,106.7C12.3,117,25,139,37,149.3C49.2,160,62,160,74,160C86.2,160,98,160,111,165.3C123.1,171,135,181,148,181.3C160,181,172,171,185,138.7C196.9,107,209,53,222,69.3C233.8,85,246,171,258,197.3C270.8,224,283,192,295,192C307.7,192,320,224,332,234.7C344.6,245,357,235,369,208C381.5,181,394,139,406,128C418.5,117,431,139,443,133.3C455.4,128,468,96,480,101.3C492.3,107,505,149,517,170.7C529.2,192,542,192,554,208C566.2,224,578,256,591,240C603.1,224,615,160,628,149.3C640,139,652,181,665,197.3C676.9,213,689,203,702,208C713.8,213,726,235,738,224C750.8,213,763,171,775,165.3C787.7,160,800,192,812,192C824.6,192,837,160,849,170.7C861.5,181,874,235,886,261.3C898.5,288,911,288,923,282.7C935.4,277,948,267,960,256C972.3,245,985,235,997,240C1009.2,245,1022,267,1034,256C1046.2,245,1058,203,1071,197.3C1083.1,192,1095,224,1108,234.7C1120,245,1132,235,1145,229.3C1156.9,224,1169,224,1182,186.7C1193.8,149,1206,75,1218,48C1230.8,21,1243,43,1255,85.3C1267.7,128,1280,192,1292,186.7C1304.6,181,1317,107,1329,90.7C1341.5,75,1354,117,1366,133.3C1378.5,149,1391,139,1403,128C1415.4,117,1428,107,1434,101.3L1440,96L1440,0L1433.8,0C1427.7,0,1415,0,1403,0C1390.8,0,1378,0,1366,0C1353.8,0,1342,0,1329,0C1316.9,0,1305,0,1292,0C1280,0,1268,0,1255,0C1243.1,0,1231,0,1218,0C1206.2,0,1194,0,1182,0C1169.2,0,1157,0,1145,0C1132.3,0,1120,0,1108,0C1095.4,0,1083,0,1071,0C1058.5,0,1046,0,1034,0C1021.5,0,1009,0,997,0C984.6,0,972,0,960,0C947.7,0,935,0,923,0C910.8,0,898,0,886,0C873.8,0,862,0,849,0C836.9,0,825,0,812,0C800,0,788,0,775,0C763.1,0,751,0,738,0C726.2,0,714,0,702,0C689.2,0,677,0,665,0C652.3,0,640,0,628,0C615.4,0,603,0,591,0C578.5,0,566,0,554,0C541.5,0,529,0,517,0C504.6,0,492,0,480,0C467.7,0,455,0,443,0C430.8,0,418,0,406,0C393.8,0,382,0,369,0C356.9,0,345,0,332,0C320,0,308,0,295,0C283.1,0,271,0,258,0C246.2,0,234,0,222,0C209.2,0,197,0,185,0C172.3,0,160,0,148,0C135.4,0,123,0,111,0C98.5,0,86,0,74,0C61.5,0,49,0,37,0C24.6,0,12,0,6,0L0,0Z"></path></svg>